<svg width="1440" height="1024" viewBox="0 0 1440 1024" fill="none" xmlns="http://www.w3.org/2000/svg">
<g clip-path="url(#clip0)">
<rect width="1440" height="1024" fill="white"/>
<path d="M1069.75 632.718L1035.25 622.691C1031.63 621.672 1029.6 617.877 1030.62 614.251L1107.82 347.907C1108.84 344.282 1112.63 342.243 1116.25 343.262L1150.75 353.288C1154.37 354.308 1156.4 358.103 1155.38 361.728L1078.18 628.073C1077.11 631.698 1073.37 633.794 1069.75 632.718V632.718ZM1005.28 569.162L1029.88 542.879C1032.48 540.103 1032.31 535.685 1029.43 533.136L978.187 487.99L1029.43 442.844C1032.31 440.295 1032.54 435.877 1029.88 433.101L1005.28 406.818C1002.73 404.099 998.435 403.929 995.664 406.535L914.163 483.005C911.279 485.667 911.279 490.256 914.163 492.918L995.664 569.445C998.435 572.051 1002.73 571.938 1005.28 569.162V569.162ZM1190.34 569.502L1271.84 492.975C1274.72 490.312 1274.72 485.724 1271.84 483.062L1190.34 406.478C1187.62 403.929 1183.32 404.042 1180.72 406.761L1156.12 433.044C1153.52 435.82 1153.69 440.238 1156.57 442.787L1207.81 487.99L1156.57 533.136C1153.69 535.685 1153.46 540.103 1156.12 542.879L1180.72 569.162C1183.27 571.938 1187.57 572.051 1190.34 569.502V569.502Z" fill="#ffefef"/>
<path d="M393.978 740.848L375.394 735.455C373.444 734.906 372.347 732.865 372.896 730.914L414.482 587.64C415.031 585.69 417.072 584.593 419.022 585.141L437.606 590.534C439.556 591.083 440.653 593.124 440.104 595.075L398.518 738.349C397.939 740.3 395.928 741.427 393.978 740.848V740.848ZM359.247 706.66L372.5 692.521C373.901 691.028 373.81 688.651 372.256 687.28L344.653 662.995L372.256 638.709C373.81 637.338 373.931 634.961 372.5 633.468L359.247 619.33C357.876 617.867 355.56 617.776 354.067 619.177L310.165 660.313C308.612 661.745 308.612 664.213 310.165 665.646L354.067 706.812C355.56 708.214 357.876 708.153 359.247 706.66V706.66ZM458.933 706.842L502.835 665.676C504.388 664.244 504.388 661.776 502.835 660.344L458.933 619.147C457.47 617.776 455.155 617.836 453.753 619.299L440.5 633.438C439.099 634.931 439.19 637.307 440.744 638.679L468.347 662.995L440.744 687.28C439.19 688.651 439.069 691.028 440.5 692.521L453.753 706.66C455.124 708.153 457.44 708.214 458.933 706.842V706.842Z" fill="#ffefef"/>
<path d="M1367.98 896.848L1349.39 891.455C1347.44 890.906 1346.35 888.865 1346.9 886.914L1388.48 743.64C1389.03 741.69 1391.07 740.593 1393.02 741.141L1411.61 746.534C1413.56 747.083 1414.65 749.124 1414.1 751.075L1372.52 894.349C1371.94 896.3 1369.93 897.427 1367.98 896.848V896.848ZM1333.25 862.66L1346.5 848.521C1347.9 847.028 1347.81 844.651 1346.26 843.28L1318.65 818.995L1346.26 794.709C1347.81 793.338 1347.93 790.961 1346.5 789.468L1333.25 775.33C1331.88 773.867 1329.56 773.776 1328.07 775.177L1284.17 816.313C1282.61 817.745 1282.61 820.213 1284.17 821.646L1328.07 862.812C1329.56 864.214 1331.88 864.153 1333.25 862.66V862.66ZM1432.93 862.842L1476.83 821.676C1478.39 820.244 1478.39 817.776 1476.83 816.344L1432.93 775.147C1431.47 773.776 1429.15 773.836 1427.75 775.299L1414.5 789.438C1413.1 790.931 1413.19 793.307 1414.74 794.679L1442.35 818.995L1414.74 843.28C1413.19 844.651 1413.07 847.028 1414.5 848.521L1427.75 862.66C1429.12 864.153 1431.44 864.214 1432.93 862.842V862.842Z" fill="#ffefef"/>
<path d="M118.629 264.916L108.431 261.943C107.362 261.641 106.76 260.515 107.061 259.44L129.88 180.455C130.181 179.38 131.301 178.775 132.371 179.078L142.569 182.051C143.638 182.353 144.24 183.479 143.939 184.554L121.12 263.539C120.802 264.614 119.699 265.235 118.629 264.916V264.916ZM99.5712 246.069L106.843 238.274C107.612 237.451 107.562 236.141 106.71 235.385L91.5636 221.997L106.71 208.609C107.562 207.853 107.629 206.543 106.843 205.72L99.5712 197.925C98.819 197.119 97.5484 197.069 96.7293 197.841L72.6394 220.519C71.7869 221.308 71.7869 222.669 72.6394 223.458L96.7293 246.153C97.5484 246.925 98.819 246.892 99.5712 246.069V246.069ZM154.271 246.17L178.361 223.475C179.213 222.686 179.213 221.325 178.361 220.536L154.271 197.824C153.468 197.069 152.198 197.102 151.429 197.908L144.157 205.703C143.388 206.526 143.438 207.836 144.29 208.592L159.436 221.997L144.29 235.385C143.438 236.141 143.371 237.451 144.157 238.274L151.429 246.069C152.181 246.892 153.452 246.925 154.271 246.17V246.17Z" fill="#ffefef"/>
<path d="M1085.63 892.916L1075.43 889.943C1074.36 889.641 1073.76 888.515 1074.06 887.44L1096.88 808.455C1097.18 807.38 1098.3 806.775 1099.37 807.078L1109.57 810.051C1110.64 810.353 1111.24 811.479 1110.94 812.554L1088.12 891.539C1087.8 892.614 1086.7 893.235 1085.63 892.916V892.916ZM1066.57 874.069L1073.84 866.274C1074.61 865.451 1074.56 864.141 1073.71 863.385L1058.56 849.997L1073.71 836.609C1074.56 835.853 1074.63 834.543 1073.84 833.72L1066.57 825.925C1065.82 825.119 1064.55 825.069 1063.73 825.841L1039.64 848.519C1038.79 849.308 1038.79 850.669 1039.64 851.458L1063.73 874.153C1064.55 874.925 1065.82 874.892 1066.57 874.069V874.069ZM1121.27 874.17L1145.36 851.475C1146.21 850.686 1146.21 849.325 1145.36 848.536L1121.27 825.824C1120.47 825.069 1119.2 825.102 1118.43 825.908L1111.16 833.703C1110.39 834.526 1110.44 835.836 1111.29 836.592L1126.44 849.997L1111.29 863.385C1110.44 864.141 1110.37 865.451 1111.16 866.274L1118.43 874.069C1119.18 874.892 1120.45 874.925 1121.27 874.17V874.17Z" fill="#ffefef"/>
<path d="M616.629 627.916L606.431 624.943C605.362 624.641 604.76 623.515 605.061 622.44L627.88 543.455C628.181 542.38 629.301 541.775 630.371 542.078L640.569 545.051C641.638 545.353 642.24 546.479 641.939 547.554L619.12 626.539C618.802 627.614 617.699 628.235 616.629 627.916V627.916ZM597.571 609.069L604.843 601.274C605.612 600.451 605.562 599.141 604.71 598.385L589.564 584.997L604.71 571.609C605.562 570.853 605.629 569.543 604.843 568.72L597.571 560.925C596.819 560.119 595.548 560.069 594.729 560.841L570.639 583.519C569.787 584.308 569.787 585.669 570.639 586.458L594.729 609.153C595.548 609.925 596.819 609.892 597.571 609.069V609.069ZM652.271 609.17L676.361 586.475C677.213 585.686 677.213 584.325 676.361 583.536L652.271 560.824C651.468 560.069 650.198 560.102 649.429 560.908L642.157 568.703C641.388 569.526 641.438 570.836 642.29 571.592L657.436 584.997L642.29 598.385C641.438 599.141 641.371 600.451 642.157 601.274L649.429 609.069C650.181 609.892 651.452 609.925 652.271 609.17V609.17Z" fill="#ffefef"/>
<path d="M776.629 935.916L766.431 932.943C765.362 932.641 764.76 931.515 765.061 930.44L787.88 851.455C788.181 850.38 789.301 849.775 790.371 850.078L800.569 853.051C801.638 853.353 802.24 854.479 801.939 855.554L779.12 934.539C778.802 935.614 777.699 936.235 776.629 935.916V935.916ZM757.571 917.069L764.843 909.274C765.612 908.451 765.562 907.141 764.71 906.385L749.564 892.997L764.71 879.609C765.562 878.853 765.629 877.543 764.843 876.72L757.571 868.925C756.819 868.119 755.548 868.069 754.729 868.841L730.639 891.519C729.787 892.308 729.787 893.669 730.639 894.458L754.729 917.153C755.548 917.925 756.819 917.892 757.571 917.069V917.069ZM812.271 917.17L836.361 894.475C837.213 893.686 837.213 892.325 836.361 891.536L812.271 868.824C811.468 868.069 810.198 868.102 809.429 868.908L802.157 876.703C801.388 877.526 801.438 878.836 802.29 879.592L817.436 892.997L802.29 906.385C801.438 907.141 801.371 908.451 802.157 909.274L809.429 917.069C810.181 917.892 811.452 917.925 812.271 917.17V917.17Z" fill="#ffefef"/>
<path d="M1320.63 272.916L1310.43 269.943C1309.36 269.641 1308.76 268.515 1309.06 267.44L1331.88 188.455C1332.18 187.38 1333.3 186.775 1334.37 187.078L1344.57 190.051C1345.64 190.353 1346.24 191.479 1345.94 192.554L1323.12 271.539C1322.8 272.614 1321.7 273.235 1320.63 272.916V272.916ZM1301.57 254.069L1308.84 246.274C1309.61 245.451 1309.56 244.141 1308.71 243.385L1293.56 229.997L1308.71 216.609C1309.56 215.853 1309.63 214.543 1308.84 213.72L1301.57 205.925C1300.82 205.119 1299.55 205.069 1298.73 205.841L1274.64 228.519C1273.79 229.308 1273.79 230.669 1274.64 231.458L1298.73 254.153C1299.55 254.925 1300.82 254.892 1301.57 254.069V254.069ZM1356.27 254.17L1380.36 231.475C1381.21 230.686 1381.21 229.325 1380.36 228.536L1356.27 205.824C1355.47 205.069 1354.2 205.102 1353.43 205.908L1346.16 213.703C1345.39 214.526 1345.44 215.836 1346.29 216.592L1361.44 229.997L1346.29 243.385C1345.44 244.141 1345.37 245.451 1346.16 246.274L1353.43 254.069C1354.18 254.892 1355.45 254.925 1356.27 254.17V254.17Z" fill="#ffefef"/>
<path d="M723.629 116.916L713.431 113.943C712.362 113.641 711.76 112.515 712.061 111.44L734.88 32.4552C735.181 31.3801 736.301 30.7754 737.371 31.0777L747.569 34.051C748.638 34.3534 749.24 35.4789 748.939 36.5539L726.12 115.539C725.802 116.614 724.699 117.235 723.629 116.916V116.916ZM704.571 98.0687L711.843 90.2744C712.612 89.4513 712.562 88.141 711.71 87.3851L696.564 73.997L711.71 60.6089C712.562 59.853 712.629 58.5427 711.843 57.7196L704.571 49.9253C703.819 49.1189 702.548 49.0686 701.729 49.8413L677.639 72.5188C676.787 73.3083 676.787 74.6689 677.639 75.4584L701.729 98.1527C702.548 98.9254 703.819 98.8918 704.571 98.0687V98.0687ZM759.271 98.1695L783.361 75.4752C784.213 74.6857 784.213 73.3251 783.361 72.5356L759.271 49.8245C758.468 49.0686 757.198 49.1021 756.429 49.9085L749.157 57.7028C748.388 58.5259 748.438 59.8362 749.29 60.5921L764.436 73.997L749.29 87.3851C748.438 88.141 748.371 89.4513 749.157 90.2744L756.429 98.0687C757.181 98.8918 758.452 98.9254 759.271 98.1695V98.1695Z" fill="#ffefef"/>
<path d="M171.629 541.916L161.431 538.943C160.362 538.641 159.76 537.515 160.061 536.44L182.88 457.455C183.181 456.38 184.301 455.775 185.371 456.078L195.569 459.051C196.638 459.353 197.24 460.479 196.939 461.554L174.12 540.539C173.802 541.614 172.699 542.235 171.629 541.916V541.916ZM152.571 523.069L159.843 515.274C160.612 514.451 160.562 513.141 159.71 512.385L144.564 498.997L159.71 485.609C160.562 484.853 160.629 483.543 159.843 482.72L152.571 474.925C151.819 474.119 150.548 474.069 149.729 474.841L125.639 497.519C124.787 498.308 124.787 499.669 125.639 500.458L149.729 523.153C150.548 523.925 151.819 523.892 152.571 523.069V523.069ZM207.271 523.17L231.361 500.475C232.213 499.686 232.213 498.325 231.361 497.536L207.271 474.824C206.468 474.069 205.198 474.102 204.429 474.908L197.157 482.703C196.388 483.526 196.438 484.836 197.29 485.592L212.436 498.997L197.29 512.385C196.438 513.141 196.371 514.451 197.157 515.274L204.429 523.069C205.181 523.892 206.452 523.925 207.271 523.17V523.17Z" fill="#ffefef"/>
<path d="M1079.98 186.848L1061.39 181.455C1059.44 180.906 1058.35 178.865 1058.9 176.914L1100.48 33.6397C1101.03 31.6895 1103.07 30.5925 1105.02 31.141L1123.61 36.5344C1125.56 37.0829 1126.65 39.1244 1126.1 41.0746L1084.52 184.349C1083.94 186.3 1081.93 187.427 1079.98 186.848V186.848ZM1045.25 152.66L1058.5 138.521C1059.9 137.028 1059.81 134.651 1058.26 133.28L1030.65 108.995L1058.26 84.7091C1059.81 83.3379 1059.93 80.9612 1058.5 79.4681L1045.25 65.3295C1043.88 63.8669 1041.56 63.7755 1040.07 65.1772L996.165 106.313C994.612 107.745 994.612 110.213 996.165 111.646L1040.07 152.812C1041.56 154.214 1043.88 154.153 1045.25 152.66V152.66ZM1144.93 152.842L1188.83 111.676C1190.39 110.244 1190.39 107.776 1188.83 106.344L1144.93 65.1467C1143.47 63.7755 1141.15 63.8365 1139.75 65.2991L1126.5 79.4376C1125.1 80.9307 1125.19 83.3075 1126.74 84.6786L1154.35 108.995L1126.74 133.28C1125.19 134.651 1125.07 137.028 1126.5 138.521L1139.75 152.66C1141.12 154.153 1143.44 154.214 1144.93 152.842V152.842Z" fill="#ffefef"/>
<path d="M524.098 403.789L498.27 396.286C495.561 395.523 494.036 392.684 494.798 389.971L552.593 190.672C553.355 187.959 556.192 186.433 558.902 187.196L584.73 194.698C587.439 195.461 588.964 198.301 588.202 201.014L530.407 400.313C529.602 403.026 526.808 404.594 524.098 403.789V403.789ZM475.83 356.232L494.248 336.564C496.196 334.488 496.069 331.181 493.909 329.274L455.549 295.492L493.909 261.711C496.069 259.803 496.238 256.497 494.248 254.42L475.83 234.753C473.925 232.719 470.707 232.592 468.632 234.541L407.62 291.762C405.46 293.755 405.46 297.188 407.62 299.18L468.632 356.443C470.707 358.393 473.925 358.308 475.83 356.232V356.232ZM614.368 356.486L675.38 299.222C677.54 297.23 677.54 293.797 675.38 291.805L614.368 234.499C612.336 232.592 609.118 232.676 607.17 234.711L588.752 254.378C586.804 256.455 586.931 259.761 589.091 261.668L627.451 295.492L589.091 329.274C586.931 331.181 586.762 334.488 588.752 336.564L607.17 356.232C609.075 358.308 612.293 358.393 614.368 356.486V356.486Z" fill="#ffefef"/>
<path d="M54.0981 957.789L28.2704 950.286C25.5606 949.523 24.0364 946.684 24.7985 943.971L82.5932 744.672C83.3553 741.959 86.1921 740.433 88.9019 741.196L114.73 748.698C117.439 749.461 118.964 752.301 118.202 755.014L60.4068 954.313C59.6023 957.026 56.8079 958.594 54.0981 957.789V957.789ZM5.82997 910.232L24.2481 890.564C26.1957 888.488 26.0687 885.181 23.9093 883.274L-14.4511 849.492L23.9093 815.711C26.0687 813.803 26.2381 810.497 24.2481 808.42L5.82997 788.753C3.92465 786.719 0.706776 786.592 -1.36791 788.541L-62.3805 845.762C-64.5398 847.755 -64.5398 851.188 -62.3805 853.18L-1.36791 910.443C0.706776 912.393 3.92465 912.308 5.82997 910.232V910.232ZM144.368 910.486L205.38 853.222C207.54 851.23 207.54 847.797 205.38 845.805L144.368 788.499C142.336 786.592 139.118 786.676 137.17 788.711L118.752 808.378C116.804 810.455 116.931 813.761 119.091 815.668L157.451 849.492L119.091 883.274C116.931 885.181 116.762 888.488 118.752 890.564L137.17 910.232C139.075 912.308 142.293 912.393 144.368 910.486V910.486Z" fill="#ffefef"/>
</g>
<defs>
<clipPath id="clip0">
<rect width="1440" height="1024" fill="white"/>
</clipPath>
</defs>
</svg>
